TITLE ""
FILE "Disc5Track02.mp3" MP3
  TRACK 01 AUDIO
    TITLE "Disc5Track02_01"
    INDEX 01 00:00:00
  TRACK 02 AUDIO
    TITLE "Disc5Track02_02"
    INDEX 01 00:05:11
  TRACK 03 AUDIO
    TITLE "Disc5Track02_03"
    INDEX 01 00:05:45
  TRACK 04 AUDIO
    TITLE "Disc5Track02_04"
    INDEX 01 00:06:58
  TRACK 05 AUDIO
    TITLE "Disc5Track02_05"
    INDEX 01 00:08:04
  TRACK 06 AUDIO
    TITLE "Disc5Track02_06"
    INDEX 01 00:09:17
  TRACK 07 AUDIO
    TITLE "Disc5Track02_07"
    INDEX 01 00:13:36
  TRACK 08 AUDIO
    TITLE "Disc5Track02_08"
    INDEX 01 00:13:70
  TRACK 09 AUDIO
    TITLE "Disc5Track02_09"
    INDEX 01 00:15:29
  TRACK 10 AUDIO
    TITLE "Disc5Track02_10"
    INDEX 01 00:16:35
  TRACK 11 AUDIO
    TITLE "Disc5Track02_11"
    INDEX 01 00:17:70
  TRACK 12 AUDIO
    TITLE "Disc5Track02_12"
    INDEX 01 00:21:67
  TRACK 13 AUDIO
    TITLE "Disc5Track02_13"
    INDEX 01 00:22:26
  TRACK 14 AUDIO
    TITLE "Disc5Track02_14"
    INDEX 01 00:23:43
  TRACK 15 AUDIO
    TITLE "Disc5Track02_15"
    INDEX 01 00:25:46
  TRACK 16 AUDIO
    TITLE "Disc5Track02_16"
    INDEX 01 00:26:66
  TRACK 17 AUDIO
    TITLE "Disc5Track02_17"
    INDEX 01 00:31:13
  TRACK 18 AUDIO
    TITLE "Disc5Track02_18"
    INDEX 01 00:31:46
  TRACK 19 AUDIO
    TITLE "Disc5Track02_19"
    INDEX 01 00:32:53
  TRACK 20 AUDIO
    TITLE "Disc5Track02_20"
    INDEX 01 00:34:07
  TRACK 21 AUDIO
    TITLE "Disc5Track02_21"
    INDEX 01 00:35:15
  TRACK 22 AUDIO
    TITLE "Disc5Track02_22"
    INDEX 01 00:39:59
  TRACK 23 AUDIO
    TITLE "Disc5Track02_23"
    INDEX 01 00:40:18
  TRACK 24 AUDIO
    TITLE "Disc5Track02_24"
    INDEX 01 00:41:43
  TRACK 25 AUDIO
    TITLE "Disc5Track02_25"
    INDEX 01 00:42:52
  TRACK 26 AUDIO
    TITLE "Disc5Track02_26"
    INDEX 01 00:43:75
  TRACK 27 AUDIO
    TITLE "Disc5Track02_27"
    INDEX 01 00:46:08
  TRACK 28 AUDIO
    TITLE "Disc5Track02_28"
    INDEX 01 00:46:48
  TRACK 29 AUDIO
    TITLE "Disc5Track02_29"
    INDEX 01 00:47:75
  TRACK 30 AUDIO
    TITLE "Disc5Track02_30"
    INDEX 01 00:50:69
  TRACK 31 AUDIO
    TITLE "Disc5Track02_31"
    INDEX 01 00:52:21
  TRACK 32 AUDIO
    TITLE "Disc5Track02_32"
    INDEX 01 00:55:64
  TRACK 33 AUDIO
    TITLE "Disc5Track02_33"
    INDEX 01 00:56:25
  TRACK 34 AUDIO
    TITLE "Disc5Track02_34"
    INDEX 01 00:57:42
  TRACK 35 AUDIO
    TITLE "Disc5Track02_35"
    INDEX 01 01:00:22
  TRACK 36 AUDIO
    TITLE "Disc5Track02_36"
    INDEX 01 01:01:39
  TRACK 37 AUDIO
    TITLE "Disc5Track02_37"
    INDEX 01 01:05:33
  TRACK 38 AUDIO
    TITLE "Disc5Track02_38"
    INDEX 01 01:05:69
  TRACK 39 AUDIO
    TITLE "Disc5Track02_39"
    INDEX 01 01:07:34
  TRACK 40 AUDIO
    TITLE "Disc5Track02_40"
    INDEX 01 01:10:48
  TRACK 41 AUDIO
    TITLE "Disc5Track02_41"
    INDEX 01 01:12:18
  TRACK 42 AUDIO
    TITLE "Disc5Track02_42"
    INDEX 01 01:15:73
